<?xml version="1.0" standalone="no"?>
<!DOCTYPE svg PUBLIC "-//W3C//DTD SVG 20010904//EN"
 "http://www.w3.org/TR/2001/REC-SVG-20010904/DTD/svg10.dtd">
<svg version="1.0" xmlns="http://www.w3.org/2000/svg"
 width="224.000000pt" height="202.000000pt" viewBox="0 0 224.000000 202.000000"
 preserveAspectRatio="xMidYMid meet">

<g transform="translate(0.000000,202.000000) scale(0.100000,-0.100000)"
fill="#000000" stroke="none">
<path d="M1527 1974 c-3 -3 6 -16 19 -29 31 -31 32 -85 3 -132 -15 -25 -26
-32 -38 -27 -32 14 -107 21 -128 13 -31 -12 -29 -16 5 -11 31 4 112 -14 112
-26 0 -15 -206 -210 -229 -217 -18 -5 -30 0 -56 25 -39 38 -43 16 -5 -25 18
-19 21 -28 12 -37 -7 -7 -12 -19 -12 -28 0 -8 -112 -127 -249 -264 l-248 -248
-16 39 -16 38 0 -30 c-2 -65 55 -105 146 -105 285 0 647 318 729 640 18 70 15
170 -6 195 -9 11 -8 20 9 41 34 43 45 98 26 137 -15 32 -48 61 -58 51z m9
-261 c3 -16 8 -35 10 -44 12 -44 -44 -223 -93 -298 l-15 -23 -69 68 c-58 58
-68 72 -63 93 6 24 199 231 216 231 4 0 10 -12 14 -27z m-116 -392 c0 -18
-121 -150 -190 -208 -97 -81 -243 -156 -337 -173 -72 -13 -137 -8 -149 12 -10
16 470 492 509 505 31 10 34 8 100 -60 37 -38 67 -72 67 -76z"/>
<path d="M1717 1864 c-3 -3 4 -27 16 -52 29 -65 35 -197 13 -294 -63 -281
-311 -578 -601 -718 -128 -62 -207 -83 -320 -83 -115 0 -187 26 -256 92 -32
31 -49 42 -49 31 0 -9 17 -32 38 -52 126 -123 356 -130 590 -18 420 201 721
687 624 1007 -21 66 -42 100 -55 87z"/>
<path d="M54 417 c-2 -7 -3 -80 -2 -162 3 -125 5 -150 18 -150 11 0 16 15 18
63 l3 62 48 0 c59 0 108 16 121 40 6 10 10 39 10 65 0 35 -6 51 -25 70 -22 22
-32 25 -105 25 -57 0 -82 -4 -86 -13z m163 -35 c21 -14 26 -60 9 -87 -15 -22
-24 -25 -76 -25 l-60 0 0 60 0 60 58 0 c31 0 62 -4 69 -8z"/>
<path d="M385 418 c-40 -21 -45 -38 -45 -149 0 -99 2 -110 24 -136 23 -26 29
-28 104 -28 85 0 107 10 123 54 13 34 -7 54 -26 26 -29 -42 -36 -45 -93 -45
-87 0 -96 11 -100 112 -2 54 2 92 10 108 13 23 19 25 88 25 69 0 75 -2 87 -25
7 -14 18 -25 25 -25 22 0 10 48 -18 73 -21 18 -37 22 -92 22 -37 0 -76 -6 -87
-12z"/>
<path d="M974 420 c-33 -13 -49 -63 -36 -109 15 -47 43 -61 122 -61 50 0 61
-3 70 -21 13 -23 5 -70 -13 -81 -7 -4 -40 -8 -74 -8 -56 0 -64 3 -79 25 -30
45 -60 23 -34 -25 19 -35 125 -51 189 -29 39 14 51 35 51 93 0 63 -30 86 -114
86 -68 0 -86 10 -86 50 0 39 18 50 81 50 48 0 61 -4 73 -21 9 -13 21 -19 30
-16 22 9 2 51 -31 66 -28 13 -118 14 -149 1z"/>
<path d="M1272 268 c2 -100 7 -163 13 -163 6 0 11 33 13 73 l3 72 99 0 100 0
0 -64 c0 -44 5 -67 15 -76 23 -19 26 1 23 165 -3 125 -5 150 -18 150 -12 0
-16 -15 -18 -67 l-3 -68 -99 0 -100 0 0 70 c0 56 -3 70 -15 70 -13 0 -15 -22
-13 -162z"/>
<path d="M1682 420 c-34 -14 -52 -68 -52 -155 0 -105 16 -141 72 -155 65 -18
148 -6 176 26 20 23 22 35 22 132 -1 116 -7 134 -54 152 -33 12 -132 12 -164
0z m169 -47 c10 -11 14 -45 14 -110 0 -82 -3 -96 -19 -109 -27 -19 -125 -18
-154 2 -20 14 -22 23 -22 109 0 118 6 125 99 125 52 0 72 -4 82 -17z"/>
<path d="M2002 268 c2 -100 7 -163 13 -163 6 0 11 28 13 61 l3 61 70 5 c47 4
76 11 89 23 43 39 33 141 -16 164 -14 6 -59 11 -100 11 l-74 0 2 -162z m166
110 c17 -17 15 -74 -4 -93 -12 -12 -31 -15 -73 -13 l-56 3 -3 58 -3 57 64 0
c36 0 68 -5 75 -12z"/>
<path d="M675 240 c-3 -5 0 -13 8 -16 23 -9 152 0 152 11 0 14 -151 19 -160 5z"/>
</g>
</svg>
